<svg xmlns="http://www.w3.org/2000/svg" viewBox="0 0 960 440" role="img" aria-labelledby="t d">
  <title id="t">底纹库</title>
  <desc id="d">半调网点、噪点、警戒条纹、斜线网格与点阵、马赛克故障、扫描线几种底纹。</desc>
  <style>
    .cjk { font-family: 'Source Han Sans SC','Noto Sans SC','PingFang SC','Microsoft YaHei',sans-serif; }
    .data { font-family: 'Bender','JetBrains Mono',Consolas,monospace; }
    .note { fill: #8d8d8d; font-size: 12px; }
    .tag { fill: #18d1ff; font-size: 12px; }
  </style>
  <defs>
    <pattern id="dots" width="8" height="8" patternUnits="userSpaceOnUse"><circle cx="4" cy="4" r="1.2" fill="#fff" fill-opacity=".45"/></pattern>
    <!-- 半调：柔边圆点叠在方向渐变上，取阈值——渐变越亮，留下的点越大 -->
    <radialGradient id="htDot"><stop stop-color="#fff"/><stop offset="1" stop-color="#000"/></radialGradient>
    <pattern id="htDots" width="14" height="14" patternUnits="userSpaceOnUse" patternTransform="rotate(20)"><rect width="14" height="14" fill="url(#htDot)"/></pattern>
    <linearGradient id="htFade" x1="0" y1="1" x2="1" y2="0"><stop stop-color="#fff"/><stop offset=".75" stop-color="#000"/></linearGradient>
    <filter id="htCut" x="0" y="0" width="1" height="1" color-interpolation-filters="sRGB"><feColorMatrix values="0 0 0 0 1  0 0 0 0 1  0 0 0 0 1  12 0 0 0 -6"/><feComponentTransfer><feFuncA type="linear" slope=".4"/></feComponentTransfer></filter>
    <pattern id="lattice" width="20" height="21" patternUnits="userSpaceOnUse"><rect width="3" height="2.4" fill="#ababab" fill-opacity=".45"/></pattern>
    <pattern id="hazard" width="24" height="24" patternUnits="userSpaceOnUse" patternTransform="rotate(-45)"><rect width="12" height="24" fill="#ffd802"/><rect x="12" width="12" height="24" fill="#121212"/></pattern>
    <pattern id="hazardMono" width="12" height="12" patternUnits="userSpaceOnUse" patternTransform="rotate(-45)"><rect width="4" height="12" fill="#fff" fill-opacity=".35"/></pattern>
    <pattern id="grid" width="56" height="56" patternUnits="userSpaceOnUse"><path d="M0 0 L56 56 M56 0 L0 56" stroke="#fff" stroke-opacity=".14"/><rect width="56" height="56" fill="none" stroke="#fff" stroke-opacity=".08"/></pattern>
    <pattern id="scan" width="4" height="4" patternUnits="userSpaceOnUse"><rect width="4" height="1" fill="#fff" fill-opacity=".12"/></pattern>
    <filter id="grain" x="0" y="0" width="100%" height="100%"><feTurbulence type="fractalNoise" baseFrequency="1.1" numOctaves="2" seed="7"/><feColorMatrix values="0 0 0 0 1  0 0 0 0 1  0 0 0 0 1  0 0 0 .55 -.12"/></filter>
  </defs>
  <rect width="960" height="440" fill="#121212"/>
  <rect x="0.5" y="0.5" width="959" height="439" fill="none" stroke="#333"/>

  <!-- 半调 -->
  <text x="40" y="44" class="data tag">01 HALFTONE</text>
  <text x="40" y="64" class="cjk note">半调网点：由密到疏是点变小，网格转约 20°</text>
  <rect x="40" y="80" width="272" height="120" fill="#1d1f20"/>
  <g filter="url(#htCut)">
    <rect x="40" y="80" width="272" height="120" fill="url(#htFade)"/>
    <rect x="40" y="80" width="272" height="120" fill="url(#htDots)" opacity=".5"/>
  </g>

  <!-- 噪点 -->
  <text x="344" y="44" class="data tag">02 GRAIN</text>
  <text x="344" y="64" class="cjk note">噪点：低密度、高颗粒，让留白不发飘</text>
  <rect x="344" y="80" width="272" height="120" fill="#424242"/>
  <rect x="344" y="80" width="272" height="120" filter="url(#grain)"/>

  <!-- 警戒条纹 -->
  <text x="648" y="44" class="data tag">03 HAZARD</text>
  <text x="648" y="64" class="cjk note">警戒条纹：45°，只做窄边，不铺满</text>
  <rect x="648" y="80" width="272" height="120" fill="#1d1f20"/>
  <rect x="648" y="80" width="272" height="16" fill="url(#hazard)"/>
  <rect x="648" y="176" width="272" height="24" fill="url(#hazardMono)"/>
  <text x="664" y="140" class="cjk" font-size="16" font-weight="700" fill="#fff">危机合约</text>
  <text x="664" y="158" class="data" font-size="11" fill="#ababab">CONTINGENCY CONTRACT</text>

  <!-- 斜线网格 -->
  <text x="40" y="250" class="data tag">04 DIAGONAL GRID</text>
  <text x="40" y="270" class="cjk note">斜线网格：方格 + 对角线；右上角是点阵</text>
  <rect x="40" y="286" width="272" height="120" fill="#0c0c0c"/>
  <rect x="40" y="286" width="272" height="120" fill="url(#grid)"/>
  <!-- 点阵：等大的小方点，四排一组 -->
  <rect x="172" y="296" width="124" height="66" fill="url(#lattice)"/>

  <!-- 马赛克 -->
  <text x="344" y="250" class="data tag">05 MOSAIC GLITCH</text>
  <text x="344" y="270" class="cjk note">局部马赛克 / 故障：暗示“信号不稳定”</text>
  <rect x="344" y="286" width="272" height="120" fill="#1d1f20"/>
  <g fill="#18d1ff">
    <rect x="368" y="322" width="16" height="16" fill-opacity=".9"/><rect x="384" y="322" width="16" height="16" fill-opacity=".4"/>
    <rect x="400" y="338" width="16" height="16" fill-opacity=".7"/><rect x="368" y="338" width="16" height="16" fill-opacity=".25"/>
    <rect x="416" y="322" width="32" height="16" fill-opacity=".15"/><rect x="384" y="354" width="48" height="16" fill-opacity=".5"/>
  </g>
  <g fill="#fff">
    <rect x="470" y="318" width="120" height="6" fill-opacity=".8"/><rect x="486" y="330" width="104" height="6" fill-opacity=".5"/>
    <rect x="462" y="342" width="90" height="6" fill-opacity=".8"/><rect x="560" y="342" width="30" height="6" fill="#18d1ff"/>
    <rect x="478" y="354" width="112" height="6" fill-opacity=".3"/>
  </g>

  <!-- 扫描线 -->
  <text x="648" y="250" class="data tag">06 SCANLINE</text>
  <text x="648" y="270" class="cjk note">扫描线：投影 / 全息看板的质感</text>
  <rect x="648" y="286" width="272" height="120" fill="#16323c"/>
  <rect x="648" y="286" width="272" height="120" fill="url(#scan)"/>
  <rect x="648" y="286" width="272" height="120" fill="url(#dots)" fill-opacity=".4"/>
</svg>
